<mxfile host="app.diagrams.net" modified="2024-01-31T00:17:57.954Z" agent="Mozilla/5.0 (Windows NT 10.0; Win64; x64; rv:122.0) Gecko/20100101 Firefox/122.0" etag="FIg35etUxOxFFcbVyOtR" version="23.0.2" type="device">
  <diagram name="PÃ¡gina-1" id="ygl6p0kjqvOYDN3REi9_">
    <mxGraphModel dx="1194" dy="716" grid="1" gridSize="10" guides="1" tooltips="1" connect="1" arrows="1" fold="1" page="1" pageScale="1" pageWidth="827" pageHeight="1169" math="0" shadow="0">
      <root>
        <mxCell id="0" />
        <mxCell id="1" parent="0" />
        <mxCell id="xliswk95vnqByms4yfg1-1" value="" style="image;html=1;image=img/lib/clip_art/networking/Router_Icon_128x128.png" vertex="1" parent="1">
          <mxGeometry x="120" y="280" width="80" height="80" as="geometry" />
        </mxCell>
        <mxCell id="xliswk95vnqByms4yfg1-2" value="" style="image;html=1;image=img/lib/clip_art/networking/Router_Icon_128x128.png" vertex="1" parent="1">
          <mxGeometry x="334" y="390" width="80" height="80" as="geometry" />
        </mxCell>
        <mxCell id="xliswk95vnqByms4yfg1-3" value="" style="image;html=1;image=img/lib/clip_art/networking/Router_Icon_128x128.png" vertex="1" parent="1">
          <mxGeometry x="334" y="170" width="80" height="80" as="geometry" />
        </mxCell>
        <mxCell id="xliswk95vnqByms4yfg1-4" value="" style="endArrow=none;html=1;rounded=0;strokeWidth=4;exitX=1;exitY=0.25;exitDx=0;exitDy=0;fillColor=#d5e8d4;strokeColor=#82b366;" edge="1" parent="1" source="xliswk95vnqByms4yfg1-1" target="xliswk95vnqByms4yfg1-3">
          <mxGeometry width="50" height="50" relative="1" as="geometry">
            <mxPoint x="220" y="280" as="sourcePoint" />
            <mxPoint x="320" y="230" as="targetPoint" />
          </mxGeometry>
        </mxCell>
        <mxCell id="xliswk95vnqByms4yfg1-5" value="" style="endArrow=none;html=1;rounded=0;strokeWidth=4;fillColor=#f8cecc;strokeColor=#b85450;" edge="1" parent="1" source="xliswk95vnqByms4yfg1-1">
          <mxGeometry width="50" height="50" relative="1" as="geometry">
            <mxPoint x="230" y="370" as="sourcePoint" />
            <mxPoint x="330" y="420" as="targetPoint" />
          </mxGeometry>
        </mxCell>
        <mxCell id="xliswk95vnqByms4yfg1-6" value="ISP" style="text;html=1;strokeColor=none;fillColor=none;align=center;verticalAlign=middle;whiteSpace=wrap;rounded=0;fontSize=16;fontStyle=1" vertex="1" parent="1">
          <mxGeometry x="135" y="230" width="50" height="30" as="geometry" />
        </mxCell>
        <mxCell id="xliswk95vnqByms4yfg1-7" value="COSTUMER A" style="text;html=1;strokeColor=none;fillColor=none;align=center;verticalAlign=middle;whiteSpace=wrap;rounded=0;fontSize=16;fontStyle=1" vertex="1" parent="1">
          <mxGeometry x="430" y="160" width="120" height="30" as="geometry" />
        </mxCell>
        <mxCell id="xliswk95vnqByms4yfg1-8" value="COSTUMER B" style="text;html=1;strokeColor=none;fillColor=none;align=center;verticalAlign=middle;whiteSpace=wrap;rounded=0;fontSize=16;fontStyle=1" vertex="1" parent="1">
          <mxGeometry x="430" y="380" width="120" height="30" as="geometry" />
        </mxCell>
        <mxCell id="xliswk95vnqByms4yfg1-9" value="192.168.1.0 /24" style="text;html=1;strokeColor=none;fillColor=none;align=center;verticalAlign=middle;whiteSpace=wrap;rounded=0;fontSize=16;fontStyle=1;fontColor=#33FF33;" vertex="1" parent="1">
          <mxGeometry x="430" y="200" width="120" height="30" as="geometry" />
        </mxCell>
        <mxCell id="xliswk95vnqByms4yfg1-10" value="&lt;div&gt;ROUTING TABLE COSTUMER A&lt;br&gt;&lt;/div&gt;" style="text;html=1;strokeColor=none;fillColor=none;align=center;verticalAlign=middle;whiteSpace=wrap;rounded=0;fontSize=16;fontStyle=1;fontColor=#33FF33;" vertex="1" parent="1">
          <mxGeometry x="290" y="260" width="146" height="30" as="geometry" />
        </mxCell>
        <mxCell id="xliswk95vnqByms4yfg1-11" value="&lt;div&gt;ROUTING TABLE COSTUMER A&lt;br&gt;&lt;/div&gt;" style="text;html=1;strokeColor=none;fillColor=none;align=center;verticalAlign=middle;whiteSpace=wrap;rounded=0;fontSize=16;fontStyle=1;fontColor=#FF6666;" vertex="1" parent="1">
          <mxGeometry x="301" y="470" width="146" height="30" as="geometry" />
        </mxCell>
        <mxCell id="xliswk95vnqByms4yfg1-12" value="&lt;div&gt;192.168.1.0 /24&lt;/div&gt;" style="text;html=1;strokeColor=none;fillColor=none;align=center;verticalAlign=middle;whiteSpace=wrap;rounded=0;fontSize=16;fontStyle=1;fontColor=#FF6666;" vertex="1" parent="1">
          <mxGeometry x="417" y="415" width="146" height="30" as="geometry" />
        </mxCell>
        <mxCell id="xliswk95vnqByms4yfg1-13" value="GLOBAL ROUTING TABLE" style="text;html=1;strokeColor=none;fillColor=none;align=center;verticalAlign=middle;whiteSpace=wrap;rounded=0;fontSize=16;fontStyle=1" vertex="1" parent="1">
          <mxGeometry x="90" y="360" width="140" height="30" as="geometry" />
        </mxCell>
      </root>
    </mxGraphModel>
  </diagram>
</mxfile>
